<?xml version="1.0" encoding="UTF-8"?>
<svg width="272.13pt" height="272.13pt" version="1.1" viewBox="0 0 96 96" xmlns="http://www.w3.org/2000/svg">
 <g>
  <rect x="15.734" y="10.397" width="41.978" height="65.141" ry="8.0375" fill="#fff" stop-color="#000000" stroke="#1a1a1a" stroke-width="4.9389"/>
  <rect x="28.71" y="22.658" width="41.978" height="65.141" ry="8.0375" fill="#fff" stop-color="#000000" stroke="#1a1a1a" stroke-width="4.9389"/>
  <g transform="translate(-.89766 4.6815)">
   <rect x="56.462" y="57.599" width="29.881" height="21.032" fill="#fff" stop-color="#000000"/>
   <g transform="translate(1.4014 8.5271)">
    <rect x="63.107" y="67.432" width="14.806" height="1.6632" ry="0" stop-color="#000000"/>
    <g stop-color="#000000" stroke-width="1.4111" aria-label="(A)">
     <path d="m61.203 50.167q-1.3849 2.3771-2.0567 4.7026-0.67179 2.3254-0.67179 4.7129t0.67179 4.7336q0.68213 2.3358 2.0567 4.7026h-1.6536q-1.5503-2.4288-2.3254-4.7749-0.76481-2.3461-0.76481-4.6612 0-2.3048 0.76481-4.6406 0.76481-2.3358 2.3254-4.7749z"/>
     <path d="m70.133 52.855-2.8319 7.6791h5.6741zm-1.1782-2.0567h2.3668l5.8808 15.431h-2.1704l-1.4056-3.9584h-6.9557l-1.4056 3.9584h-2.2014z"/>
     <path d="m79.073 50.167h1.6536q1.5503 2.4391 2.3151 4.7749 0.77515 2.3358 0.77515 4.6406 0 2.3151-0.77515 4.6612-0.76481 2.3461-2.3151 4.7749h-1.6536q1.3746-2.3668 2.0464-4.7026 0.68213-2.3461 0.68213-4.7336t-0.68213-4.7129q-0.6718-2.3254-2.0464-4.7026z"/>
    </g>
   </g>
  </g>
 </g>
</svg>
